<?xml version="1.0" encoding="UTF-8"?>
<svg version="1.1" viewBox="0 0 1600 1600" width="100" height="100" xmlns="http://www.w3.org/2000/svg">
<path transform="translate(758,206)" d="m0 0h20l15 3 8 1 12-1h45l25 3 21 6 25 10 25 13 19 12 11 9 10 10 11 15 8 11 13 15 18 18v2l4 2 26 26 11 9 15 11 13 10 7 7 5 10 5 16 3 19 3 36 3 58 2 98v8l11-6 14-10 13-12 6-5 9-11 7-9 18-27 5-5 4-3 4 2 2 7 2 80v30l-1 33-3 29-4 29-5 23-6 17-8 16-9 12-12 13-19 19h-2l-1 3-11 9-9 8-20 15-10 59-4 32-4 44-4 68-1 31v72l2 53 3 46 4 27 7 27 11 26 14 22 1 4-8-5-16-17-12-12-8-7-17-17-8-7-17-17-8-7-15-15-7-8-7-7-13-17-10-15-6-13-2-14v-26l1-24v-46l-12 6-17 13-8 6-14 11-23 15-20 11-16 9-24 14-25 13-20 8-12 3h-10l-16-7-21-14-32-20-19-13-16-12-14-11-10-9-11-9-7-7-8-7-10-11-10-13-14-21-11-18-14-25-10-15-5-6-2-1 4 21 9 40 7 28 9 38 18 70 4 18v10l-2 10-8 14-9 11-25 25-8 7-10 9-15 14-12 11-8 8-8 7-7 7-8 7-13 12-15 12-7 3-1-4 11-13 12-17 8-17 5-17 3-18 3-39 8-69 1-30v-17l2-48v-33l-1-15v-54l1-43-2-19-2-32-2-11-9-6-22-12-22-13-12-8-12-9-12-12-10-14-10-18-7-18-6-23-6-36-10-68-2-18-1-25 2-30 3-12 5-12 7-9 3-3h5l5 6 12 24 9 10 5 5 11 10 20 16 8 6 9 7 4 2-4-45-2-44v-45l1-31 3-35 3-12 5-10 14-19 11-13 9-11 12-13 6-8h2l2-4 8-8 7-8 48-48 8-7 7-7 8-7 13-11 11-9 16-13 17-13 14-8 16-6 33-8zm188 93-15 4-16 6-14 9-5 4-9 14-8 16-5 14-5 26-2 4-5 2-32 4-2 1-23-1-45-7-25-4-23-5-19-6-15-6-11-7-10-7-10-5h-5l-4 4-1 2v8l5 18 5 10 10 9 17 5 23 4 53 6 36 6 21 5 25 9 9 5 4 11 6 29 5 29 4 20v9l-7 9-11 13-13 18-8 13-9 19-8 26-10 42-7 31-2 4-6-1-20-9-19-10-18-10-13-8-20-7-16-4-8-1h-13l-29 10-13 7-4 4 1 4 7 3 23 3 11 4 7 4 6 9 1 3-7 1-27 1h-11l-22 3-11 4-6 5 1 5 4 4 23 1 5 5 8 15 5 7 10 7 7 3h18l13-4h8l20 7 5 6 2 7-6 7-10 6-9 5 2 5 6 7 30 14h6l18-10 12-9 10-10 2-3-1-7-11-14-4-5 5-9 8-4 8-1 10 3 3 13 4 69 6 76 1 19v25l-1 7-4 6-9-2-9-5-14-9-12-5-9-2-1 1 1 9 9 14 18 18 8 7 7 9 1 7-6 3-22 5-12 5-19 9-18 7-27 7-8 5 1 5 5 5 6 3 8 1 20-7 10-2h22l13 3 20 10 6 8 2 7v13l-4 4-16 6-24 6-3 3 1 4 7 6 10 4 18 4 11 5 4 7 3 21 3 37 1 3h10l13-5 18-10 23-14 46-28 19-12 34-22 14-10 13-11 9-11 7-14 8-19 10-25 6-14 21-52 11-24 5-12 18-40 5-16 3-11 3-5h5l16 12 5 1 8-7 6-4 8-8 11-9 11-10 8-7 16-16 10-15 4-8 5-19 5-24 6-39 3-30 2-38v-33l-9 5-10 9-14 11-10 8-41 28-16 12-13 8-2-1-2-19-4-45-3-55-6-138-2-13-5-10-11-13-10-10-11-9-17-16-8-7-17-17-7-8-18-20-5-6-11-9-8-3zm-559 314-1 11v25l1 20 6 49 6 33 6 23 8 21 9 16 12 16 11 11 10 7 14 9 30 15 6 1 2-3v-13l-4-11-10-13-8-9-6-10-6-15-9-32-5-22-2-17 3-6 14-13 5-7-1-5-7-11-21-21-8-7-9-9-11-9-16-13-17-11zm694 324m-1 2-7 14-11 29-11 31-9 21-13 31-10 23-3 13-1 9-1 24v42l1 31 2 18 3 12 6 11 13 17 11 13 8 10 13 12 2 3 2-1-1-4-2-40v-100l2-62 4-75 2-45 2-25v-10z" fill="#FEFEFE"/>
<path transform="translate(954,698)" d="m0 0h12l11 4 17 9 7 6 2 3v4h-28l-21 3-26 7-10 4-13 11-3 4v6l6 9 10 7 14 7 12 4h14l10-5 7-6 7-3 5 1 2 7-1 8 9 2h17l12 2 5 3v8l-4 10-18 35-10 19-10 20-7 10h-3l-7-16-6-20-8-15-11-13-12-11-17-13-13-9-17-9h-10l-10-2v-7l8-26 6-12 9-10 10-9 15-10 23-12z" fill="#FEFEFE"/>
<path transform="translate(1147,1413)" d="m0 0" fill="#FEFEFE"/>
<path transform="translate(1146,1412)" d="m0 0" fill="#FEFEFE"/>
<path transform="translate(1145,1411)" d="m0 0" fill="#FEFEFE"/>
</svg>
