<?xml version="1.0" encoding="UTF-8"?>
<svg version="1.1" viewBox="0 0 1600 1600" width="100" height="100" xmlns="http://www.w3.org/2000/svg">
<path transform="translate(686,270)" d="m0 0h19l26 6 20 6 18 8 10 7 10 3 16 1 21 3 30 6 25 7 17 6 24 11 12 7 12 1 10-4 12 1 21 7 15 8 10 7 11 8 17 14 17 16 5 4v2l4 2 16 16 16 12 8 5 27 8 25 10 13 6 9 6 12 10 9 11 6 10 4 11 1 13v9l4 9 6 8 14 15 17 17 7 10 3 10v23l-3 29-4 25v14l3 14 3 3 17 4 20 2 7 3 1 5-6 3-17 3-17 2 1 8 9 38 6 15 12 17 9 9 10 7 9 6 5 6-1 5-1 1-14 1-16-3-26-5-21-2-5-1 5 12 8 20 4 15v14l-3 17-7 20-8 18-15 26-8 12-8 10-8 12-2 2 2 13 8 33 6 20v11l-4 9-6 10-11 12-13 11-17 12-12 8-13 11-1 2h-2l1 5 9 11 10 10 10 13v4l-2 1h-8l-9-2-8-1-18-6-16-8-16-10-4-3-4 1-12 13-7 8-16 15-11 9-13 11-16 12-25 16-32 21-19 12-20 12-13 8-11 6-21 11-21 8-18 5-12 1-14-3-31-12-20-9-29-14-26-13-18-10-22-14-18-13-11-9-12-11-13-12-9-9-7-8-11-13-12-17-10-16-12-19-13-24-8-15-15-33-8-16-8-14-12-17-20-30-13-21-8-16-4-11v-12l2-9 9-16 9-13 4-8 1-8-6-10-9-10-8-5-3-1h-9l-7 4-5 6-9 19-3 18 1 21 5 25 10 22 14 23 10 14 13 19 5 10 3 8 1 5 2 3v4h-2v2h2l5 5 11 8 15 15 10 16 8 17 12 35 14 26 5 9-1 4-5 5-5 4-11 7-14 8-21 7-3-1 1-4 8-7 5-15v-6l-3-2-5-1h-7l-7 2h-20l-12-3-6-4-8-7-7-11-2-9h7l15 3h9l8-5 11-10 6-12v-14l-5-13-6-10-5-4-9-3-10-7-15-14-6-8-9-6-5-1-4 3-2 7 1 9 10 25 4 5-1 9-5 1-13-7-9-7-12-11-7-7-11-14-7-12-4-11 2-10 7-25 3-13 1-26-1-6 3-7v-7l-1-3-16 1-17-4-22-8-26-8-7-4v-2l7-3 17-5 15-6 14-8 8-14 8-26 1-12-6-12-13-13-10-14-8-17-1-4 4-13 5-14-2-9-8-9-11-9-13-12-9-7-3-5v-6l2-1h14l16 1 6 2 24-9 8-7 2-9-5-12-5-11-3-10-1-7v-20l2-11 7-18 7-11 8-10 13-13 14-11 11-8 21-14 21-11 12-6 2-3 1-8 1-18 7-38 6-22 6-14 8-11 9-10 12-10 15-11 25-14 24-10 17-5 10-2 13-5 8-6 16-16 13-10 15-10 19-10zm253 124v12l4 10 3 10-3 5-5-2-9-7-9-9-11-9-8-6-7-2-11-1-9 3-11 7-10 7-14 10-16 11-13 11-7 8-3 9 2 14 12 36 8 21 13 27 4 11-25-3h-20l-13 3-14 6-14 9-9 8-5 10-3 15v10l2 18 5 15 8 16 6 9 13 10 11 4 4 1h13l18-4 9-3h8l-6 8-10 8-10 6-16 7-23 7-13 1-10-3-6-4-8-10-7-10-5-5-7-3-5 3 1 11 10 25 9 15 11 22 1 8-6 1-9-3-3-2-9-2-25-10-20-7-17-5-11-2h-11l-10 3-12 11-6 6v2l-3 1-8 10-4 11v3l14-3 14-7 7-2h16l30 9 16 6 10 6 9 7 8 11 2 5-1 7-1 1-10-1-24-13-10-4-6-1h-15l-14 5-17 8-25 11-14 7-5 4-7 10v5l5 2 5-1 9-4 12-4 11-1 5 4 7 14 8 11 6 5 11 5 18 3h11l11-4 12-10 8-4 16 1 12 3 21 7 12 8 8 1 13-6 6-1h12l5 3 1 2v10l-5 25-2 17v21l4 26 3 15 2 17v22l-3 6-11-1-24-9-19-4h-9l-4 2-2 3 1 6 7 8 8 7 10 9 9 11 7 6 14 6 8 4 8 7-1 5-7 1-16-2-16 4-29 15-14 6-16 2h-15l-10 3-4 5 1 9 4 7 7 4 11 1 21-2 12 2 14 6 30 7 17 3-4 4-11 4-16 6-8 5-4 5 1 5 16 15 10 10 6 5 7 9-1 9-8 18-3 6v7l3 7 5 5 9 7 12 4 12 1 16-3 17-7 17-8 23-13 26-15 28-17 22-14 19-13 36-27 10-8v-2l4-2 9-11 9-12 9-16 4-7 11-22 15-38 16-45 10-25 5-8 1-1 11 1 7 3 3 2 7-1 8-6 9-13 8-7 15-13 14-14 10-15 9-19 8-25 2-12-1-12-5-12-6-8-7-4-9 1-8 4-3 2v2l-12 6-4 1 4-11 10-14 22-36 12-16 6-12 1-10v-7l-7-34-5-21-7-16-9-16-10-14-12-14-12-12-5-7-1-3 9-2 8-3 5-4 1-8v-11l-2-10-5-18-14-35-7-25-5-15-6-9-8-8-16-8-33-8-15-4h-3l-1 2 1 10 6 10 16 15 13 14 4 6 2 7-9-3-16-9-19-10-16-8-10-10-9-15-8-16-9-15-9-10-10-8-13-8-11-5-17-6h-5l-4 1-8-5-9-3zm211 648-7 8-6 12-11 32-8 22-6 15-5 12-1 8 3 7 9 4h3l4-6 12-13 15-10 16-12 10-8 5-10v-8l-7-16-8-17-5-10-7-9z" fill="#FEFEFE"/>
<path transform="translate(1019,789)" d="m0 0h19l16 4 15 6 17 9 9 7 5 6 1 5-7 3-39-7-17-2-20-1-23 4-28 8-16 6-17 9-6 5-3 7 2 10 5 8 10 9 8 5 10 3h8l11-4 12-7 8-3h9l5 5-1 5-7 8-15 9-5 4 1 8 6 4 7 2h15l11-4 15-8 5-2h13l22 5 10 5 2 4-5 13-7 10-9 10-7 7-15 11-21 13-25 14-23 13-6 2-7-12-6-15-4-16 1-7-5-10-7-6-9-6-13-9-19-19-9-13-5-12v-8l3-19 4-17 5-12 7-12 9-8 18-7 27-8 42-10z" fill="#FEFEFE"/>
</svg>
