<?xml version="1.0" encoding="UTF-8"?>
<svg version="1.1" viewBox="0 0 1600 1600" width="100" height="100" xmlns="http://www.w3.org/2000/svg">
<path transform="translate(838,262)" d="m0 0 5 3 8 11 8 12 16 23 10 16 4 5 9 7 15 8 17 8 22 12 19 12 16 11 18 13 13 9 11 5 6-3 8-3 13-8 12-6 9-2 6 2-1 9-5 13-6 13-2 11 1 21 6 21 8 18 7 12 11 17 11 16 10 14 16 21 10 13 13 18 13 20 12 22 9 19 10 26 1 10-8 22-7 16-5 16v15l15 1 16-3 50-11 43-10 26-10 12-2 6 2 1 2v15l-3 15-5 15-11 26-14 36-11 25-12 34-6 23-6 24-11 31-8 16-8 12-10 14-13 16-21 21-8 7-11 8-27 18-14 7-6 2h-18l-10-2-4-1-8 11-6 12-8 14-10 15-6 10-8 12-10 13h-2v2h-2l-2 4-11 11-11 9-8 7-6 5h-2v2l-11 9-13 11-16 12-15 12-20 15-14 10-17 11-19 12-16 9-28 12-25 7-11 2h-15l-17-4-19-7-20-10-17-9-22-13-25-16-18-13-13-10-13-11-13-12-22-22-7-8-12-13-14-15-10-13-10-15-12-22-8-14-9-17-6-2-12 1h-47l-9-2-10-6-9-9-12-16-8-10-12-14-9-11-26-26-8-7-19-19-8-13-8-20-12-37-20-70-12-36-8-19-13-29-4-12-1-13 6-18 5-8 4-3 7 1 8 7 7 8 4 5 2 1v2l5 2 8 4 19 7 23 5 46 8 30 7-1-2-1-26v-19l3-22 5-17 1-5v-20l-6-26v-6l5-9 11-12 17-16 7-9 6-14 6-15 12-21 11-18 8-14 6-11 12-26 7-20 6-10 5-1 3 4 7 26 4-1 9-7 11-13 8-9 10-13 9-13 7-12 3-13 5-8 4-1 8 9 6-1 7-5 4-8 6-18 4-23 2-7 4-3 5 1 5 5 3 10 5 27 1 5h10l10-4 15-9 24-13 18-11 26-14 15-9 13-12 12-15 6-9 8-8zm57 110-3 9-4 26-15 70v2l4 1 10-4 12-13 4-3h3l2 7-1 13-2 9 2 30 1 4v8l-6 12-11 16-10 13-11 14-11 13-9 10-10 10-7 8-10 14-8 14-4 8v6l5 3h8l15-7 5 1v7l-12 40-12 36-12 30-15 30-7 16 1 6v14l1 3 1 57 3 41 1 11v31l-3 12-1 21 1 24 3 24v8l-2 4-4 1h-36l-11-2-4-4-6-16-3-3-5 1-2 6-2 12 3 7h-2l1 5 4 5 28 15 12 6 17 12 10 8 5 6 2 6-19 1-14 2-32 13-22 7-28 5-5 3-4 4 2 5 7 8 8 4h6l10-4 5-4 6-1h33l10 2 17 8 5 5 4 8-1 3-11 4-19 3-9 4-7 7 1 6 8 16 7 9 10 7 10 5 5 3 4 8 1 5-4 15 1 12 3 5 9 6 8 4 18 1 12-3 19-8 18-10 22-15 19-14 17-12 12-9 16-13 11-9 13-11 8-7 13-11 12-11 12-12 18-22 13-19 12-20 10-18 13-27 11-26 3-10 1-5 4 2 8 13 7 8 11 5 7 2h11l12-5 20-12 20-14 12-9 15-13 15-16 8-16 5-22 5-26 9-35 9-30 12-35 7-20 5-13 4-18v-3l-10 1-57 13-21 6-25 10-25 13-13 9-9 9-8 16-6 11-5 2-3-8 1-8 3-12 7-34 6-28 12-29 4-13v-20l1-17 9-20-1-8-3-9-8-17-13-20-10-16-11-16-9-12-13-17-13-18-10-15-9-15-10-25-6-20-5-19-4-9-4-6-3-1-12 5-3 5-4 11-3 11-5-1-4-4-5-3-10-11-9-12-9-11-11-12-7-7-11-9-15-12-23-15-13-7zm-604 405-1 2v8l5 25 13 38 10 28 16 44 10 27 8 17 6 8 9 10 59 59h2l2 4h2v2l12 9 8 4 37 4h17l-2-11-8-37-4-20-6-20-13-38-9-20-8-14-14-18-3-8 1-8 3-9 3-8 2-7v-6l-6-7-7-4-28-13-30-18-16-8-27-7-28-7-6-1zm311 23-21 3-6 3-1 3 11 4 18 5 21 6 13 5 5 5v7l-4 3-32 2-29 15-25 11-9 6-3 3 1 9 4 6 7 5 6-2 12-8 11-8 6-3h11l4 4 6 18 4 6 8 5 13 9 10 4h19l21-8 23-7 18-3h9l19 4 4 2h3l4-7-2-30-3-15-7-14-13-12-14-10-16-9-16-7-19-5-10-2-31-2-8-1z" fill="#FEFEFE"/>
<path transform="translate(967,793)" d="m0 0h9l16 3 18 6 20 9 14 9 8 7 4 8v5l-4 1-54 1-30 4-23 5-16 6-10 6-6 5-5 10 2 12 1 3 14 3 18 8 14 7 8 3 12 2 14-10 7-3h7l-1 6-3 7h-2l-2 5-1 7 3 1h8l24-6 13-3h9l5 3 2 7-1 9-6 12-13 16-8 10-12 14-7 10-6 8-8 9-4-1-5-11-5-15-6-11-9-8-16-8-20-6-25-5-9-6-5-9-4-11-11-33-1-9 3-10 6-11 11-13 24-24 8-7 8-8 8-7 12-9z" fill="#FEFEFE"/>
</svg>
