<?xml version="1.0" encoding="UTF-8"?>
<svg version="1.1" viewBox="0 0 1600 1600" width="100" height="100" xmlns="http://www.w3.org/2000/svg">
<path transform="translate(807,177)" d="m0 0h16l12 3 27 11 21 12 20 11 17 10 25 15 39 26 11 7 17 12 28 21 17 14 13 12 8 8 11 15 12 21 13 28 11 29 9 29 8 33 3 20v38l6-7 8-15 6-15 10-33 16-59 5-26 1-11v-26l-5-19-8-20-8-18 1-4 6 1 9 7 9 9 8 10 12 17 11 17 9 17 12 29 9 25 9 30 8 34 7 35 4 28 1 29-1 17-5 33-5 24-6 20-7 17-10 19-13 24-10 14-12 16-12 14-18 20-8 10-10 10-5 10v17l-1 8-3 66-7 107-2 28-1 23-1 46v140l1 100 1 25 3 22 3 19-4 1-8-4-12-9-26-24-9-9-9-11-11-14-9-14-8-17-8-18-10-16-5-12-6-88-2-42v-10l-2-4-8 6-15 15-9 11-9 9-7 8-6 7h-2l-2 4-46 46-8 7-9 9-17 13-21 14-23 12-13 4-16 3h-19l-22-5-17-6-33-16-25-14-14-10-12-11-9-11-22-33-12-16-9-11-12-14-16-17-20-20-8-7-10-9-12-11-6-9-8-19-8-25-9-38-4-21-4-40-5-19-6-10-2-1v172l4 16 8 21 5 6 6 1h16v10l-5 35-5 30-9 62-6 31-5 16-11 19-13 21-13 17-14 18-8 10-9 10-9 8-6 1v-8l6-18 8-37 4-35 3-48 1-37v-45l-1-49-3-88-4-79-2-63v-61l2-24-4-6-12-11-8-7-18-18-7-8-9-10-9-11-11-13-14-20-10-18-8-16-9-21-6-23-3-26-1-17v-36l3-46 3-27 5-30 8-30 12-35 8-19 16-33 10-17 16-24 9-12 7-9 4-5 13-8h3l-1 11-6 20-9 31-6 29-1 11v17l4 26 6 23 7 17 10 18 8 14 7 8 3 1 3-9 18-55 9-24 11-26 11-22 8-14 8-13 10-15 8-10 6-7 22-14 28-17 21-13 16-9 28-15 32-16 20-9 24-11 36-14 27-9zm48 39 1 9 5 19 12 37 8 19 5 12 1 9-6 15-10 24-11 22-9 19-10 19-14 26-13 24-12 22-10 21-4 13-1 14 4 34 5 23 8 24 8 16 7 11 12 13 10 9 5 5 2 4-4 11-5 8-2 9-2 24-3 3-10-7-7-7-6-5-7-8-8-8-8-7-11-11-11-9-17-16-8-7-14-14-8-7-9-8-10-6-5-1 1 5 9 21 10 14 11 12 30 30 8 12 2 6v8l-2 4-1 16 1 6-1 11 1 2v11l-7 8-6-2-11-9-13-10-16-10-11-7-14-12-22-24-7-7-13-9-10-5-6-2-17 1-11 3-14 7-7 7-2 7 5-1 3-1h8l15 3 15 8 13 10 12 9 8 8 5 7 1 7-6 3-27-5-27-6-6-1h-21l-16 2-8 3-2 4 5 5 22 6 6 4h2l2 4 3 8 5 20 6 9 9 10 9 6 13 6 15 2 26-6 10-4 6-5 4-5 7-4 4-1 2 4 6 10 9 7 14 7 6 2h7l6-5 11-20 8-14 10-11 8-10 5-4 5 1 2 7v10l-1 5v30l3 36 1 11v13l-7 9-5 5-8 7-19 13-18 10-12 9-7 8-1 4 7 9 10 9 14 10 4 1 5-5 4-6 5-12 8-13 4-5 4-2 8 1 4 2 3 11v20l-4 12-5 10-7 18 2 11 6 18v12l-9 3-25 10-13 7-13 8-16 8-19 8-20 8-8 5-2 4 8 5h29l13-1h24l30 6 6 3 2 2v8l-2 4-21 7-18 8-12 6-2 3 6 7 10 3 18 2 8 4 5 4 7 14 5 22 1 10v13l-2 15-5 14v9l8 4h18l23-4 37-10 24-9 10-6 14-14 12-18 11-19 10-15 14-19 13-17 10-13 11-13 11-12 7-8 27-27 8-7 7-7 5-4 3-1v50l4 65 2 15 3 7 8 7h1l4-15 3-12 4-8 1 1-5 26v26l10 87 2 18 3 12 8 16 6 9 12 12 4 3 2-1-1-7-4-59-3-45-2-63v-116l1-36 1-137 2-64 2-51v-6l5-5 16-8 11-10 7-8 12-15 8-11 13-22 13-21 14-21 8-18 5-15 4-17 3-20 1-11v-55l-4-40-7-44-7-30-7-22-7-19h-1v15l-3 26-7 34-7 25-9 26-11 25-8 17-13 23-12 21-4 12-3 18-5 15-11 23-9 14h-3l-3-9-4-35-1-14v-39l-1-24-1-18-2-21-5-21-10-24-11-29-15-31-13-22-8-12-12-16-11-14-12-14-12-13-7-8h-2l-2-4-13-12-11-10-17-13-13-10-11-8-32-26-13-10-13-8zm-491 201-4 16-11 45-6 34-3 26-2 32v54l5 21 8 19 7 12 10 14 13 18 9 14 10 14 13 21 10 16 9 12 9 11 6 5h2v-21l-4-18-7-18-8-19-6-20-2-11v-16l3-16 2-18 7-20 14-21 2-9-5-12-20-38-23-46-9-17-7-16-7-15-10-25-4-8zm210 454-8 3-4 4-1 6 4 5 9 3 19-1 2-1-1-7-3-6-4-4-7-2zm55 25-10 3-1 3 4 15 6 8 4 1 13-8 4-5v-6l-3-5-10-5zm-58 12-5 3 1 8 6 7 8 4 5-1 7-6-1-8-8-5-4-2zm52 12-1 10-14 10-6 7-2 5 1 6 4 4 3 1h8l10-5 4-8-1-9-4-18z" fill="#FEFEFE"/>
<path transform="translate(997,686)" d="m0 0h6l1 5-7 8-10 10-7 6-9 16 7-1 8-2 16-8 21-9 2-1h11l11 4 15 10 6 7 1 5-5 5-8 4-54 12-43 11-19 7-20 9-5 5-1 2 3 6 13 17 12 12 7 4 8 2h8l9-3 5-6 6-10 4-1 12 12 1 2h7l8-4 7-7 15-11 5-3h3v10l-3 20-1 11-1 52-3 6-8 6-10 5-14 10-13 5-5-1-3-5v-10l1-6v-20l-2-18-3-7-8-4h-22l-11-3-11-7-13-12-8-7-12-10-11-7-14-6-5-5 3-9 7-8 8-8 8-10 16-16 11-9 9-8 19-14 14-9 16-8 11-9z" fill="#FEFEFE"/>
</svg>
