<?xml version="1.0" encoding="UTF-8"?>
<svg version="1.1" viewBox="0 0 1600 1600" width="100" height="100" xmlns="http://www.w3.org/2000/svg">
<path transform="translate(777,165)" d="m0 0h28l18 4 27 9 24 9 29 12 25 12 17 10 39 26 11 6 13 10 12 11 13 17 28 44 10 15 8 14 10 21 7 18 8 28 11 44 11 54 4 28 4 51 1 15 10-10 10-14 11-15 10-14 9-10 9-11 7-7 9-11 13-18 10-15 11-17 8-11 6-7 7-4 12-5 5-1h9l7 4 1 1-1 8-6 13-7 27-5 32-3 34-1 16-1 47-3 17-6 18-9 21-12 25-9 20-13 34-9 20-11 21-9 14-10 11-7 8-34 34-8 7-3 4-7 21-4 20v22l2 14 7 24 12 26 11 22 12 22 9 17 13 21 10 14 12 18 12 19 8 16 4 12 2 14 2 30v54l-3 33-5 25-8 19-10 18-11 14-9 10-14 14-13 10-18 12-16 7-36 12-22 5-4-1 2-4 5-4 8-4 21-9 14-7 12-9 8-10 9-15 6-18 5-24 4-33 1-15v-42l-2-26-4-23-10-29-13-28-10-19-13-25-9-15-12-19-11-17-16-25-13-18-6-9-4 4-13 22-10 17-24 36-13 16-10 11-7 8-25 25-11 9-9 8-17 12-18 11-23 12-20 9-22 7-11 2h-17l-14-4-13-7-14-11-13-12-8-7-5-6-7-6-7-8-24-24-7-8-8-8-7-8-13-14-9-11-10-13-12-18-11-19-14-31-15-39-7-17-6-8-3-2 1 22v29l-2 28-4 24-5 20-7 20-11 26-13 24-9 12-20 26-11 15-10 14-13 16-11 16-8 14-7 19-3 17-1 17v16l2 22 3 16 6 16 9 17 7 7 6 7 2 1v2l4 2 10 9 18 13 25 14 21 11 5 5 1 3-1 1-12-1-27-9-24-9-21-11-15-10-13-11-9-8-7-8-11-14-9-15-9-21-5-15-4-19-2-20v-20l2-14 5-15 8-18 14-24 16-27 24-42 32-64 7-16 5-17 2-11 2-25v-53l-3-47-2-13-5-6-15-10-12-7-14-10-14-12-21-21-9-11-7-10-6-12-8-39-7-44-9-56-9-49-10-42-9-32-5-15-7-13-10-15-9-16-2-5v-9l3-4h7l14 6 11 9 10 9 8 7 28 24 10 9 11 9 16 15 23 23 7 8 9 11 7 9 11 14 11 12 4 3 2-66 3-50 4-33 6-31 8-32 7-20 9-20 9-15 12-13 9-8 17-12 7-8 5-5 11-14 12-13 17-17 8-7 13-12 11-9 10-9 19-14 14-9 25-13 21-8 12-3zm162 105-12 4-17 9-14 10-8 8-6 10-8 18-10 24-13 30-13 28-8 15-4 9-17-8-19-12-36-18-19-10-16-8-6-2h-6l-2 3 1 19 4 8 12 12 17 12 13 10 16 11 10 7 18 12 16 8 9 4h13l8-3 8-6 4-6 6-1 10 5 8 9 5 10 3 11 1 9v9l-4 15-5 12-9 17-18 27-7 10-11 23-15 35-12 27-7 14-2 3-5-1-10-6-48-28-16-8-21-6-19-3-49-5-16-1h-15l-18 2-11 4-5 5 1 5 4 4 8 2h27l20 2 29 6 15 6 11 6 5 6 3 10h-21l-18-2h-32l-18 4-24 9-8 5v4l4 11 7 6 7 4h2l9-16 5-5 6-2 11 1 9 3 6 8 5 12 7 9 10 7 9 3h9l14-3 2-1h12l7 4 5 6 10 7 6 1 9-5 6-7 2-1 10-1h15l14-5 11-4h5l2 8 3 77 3 57 1 27v21l-1 20-2 5-2 1h-10l-12-6-8-7-12-6-8-2-6 1 4 16 7 14 7 9 8 9 13 8 22 9 5 5 2 5v7l-29-4-13 1-29 8-34 13-6 3-1 4 5 7 19-4 13-2h25l29 3 9 2 4 4 1 3v10l-3 11-5 3-4 1h-26l-25-5-15-4-3 1 11 14 11 11 11 7 15 6 20 7 8 4 2 6v12l-4 17-3 12 2 7 3 2h13l12-4 27-12 21-11 12-8 14-11 14-12 16-15 10-9 22-22 9-11 7-9 10-14 7-11 6-9 15-26 9-20 10-23 13-29 7-15 15-32 12-30 5-19 5-21 3-6 5 1 4 5 4 16 4 26 1 2 6-1 11-7 12-14 7-7 12-16 8-11 9-14 11-22 8-20 13-34 13-37 13-40 5-26 4-35 4-28 8-48 1-8-2-2-5 3-14 19-13 22-9 15-10 17-13 22-12 17-11 13-9 11-11 12-9 11-28 28-8 7-5 4v-16l1-27 3-17 6-17 1-9v-16l-3-26-6-28-9-36-17-58-15-44-10-23-8-12-17-17-11-14-13-30-8-12-8-10-7-6-11-5-8-2zm-569 254v8l7 30 9 37 8 43 9 60 6 35 6 21 8 16 6 10 7 10 11 13 8 8 11 9 12 9 13 9 14 6h3l1-9-2-8-7-11-12-15-9-14-10-17-10-24-5-15-1-8 7-14 6-10 10-19 3-12-4-9-9-15-9-13-9-15-14-23-11-17-13-19-9-11-11-12-15-12zm726 369-3 3-12 26-8 17-7 16-8 16-5 16 9 10 8 10 8 12 7 10 13 20 10 17 10 19 11 19 13 24 20 38 11 27 8 25 5 22 3 30 1 21v11l1 16 4-1 7-9 6-16 3-16 1-17-3-44-3-24-5-16-10-21-11-19-16-27-15-26-8-15-11-23-9-19-13-32-8-22-3-12-1-15 3-23 2-16-1-9-2-3z" fill="#FEFEFE"/>
<path transform="translate(950,682)" d="m0 0 41 1 13 2 12 5 4 3v2h2l10 14v2l-11-2-25-4h-18l-19 4-19 6-12 5-12 8-5 6-1 2v8l3 5 14 8 16 8 13 2h8l9-2 9-6 4-2h10l1 4-4 9 27 1 12 2 7 4 1 3-4 10-12 25-11 21-9 16-11 21-5 7-3-1-4-9-11-33-6-11-11-12-9-8-17-13-13-9-10-7-7-3-7-2-5 1-1 1h-7l-5-5 1-10 7-29 6-10 9-9 17-13 18-11 11-4z" fill="#FEFEFE"/>
</svg>
