<?xml version="1.0" encoding="UTF-8"?>
<svg version="1.1" viewBox="0 0 1600 1600" width="100" height="100" xmlns="http://www.w3.org/2000/svg">
<path transform="translate(1185,108)" d="m0 0 6 2 16 13 9 8 8 11 4 8 8 27 7 29 13 67 9 56 6 38 8 67 4 42 4 65v32l-2 15-6 20-8 16-14 26-10 15-12 20-10 15-7 11-14 24-8 14-11 19-9 14-7 11-12 19-9 11-4 5-17 13-9 8-1 6 1 5v36l-1 126-2 88v101l1 56 2 54 3 48 3 23 6 21 8 19 15 32 6 12 8 18-1 3-8-4-11-10-9-11-9-10-9-11-8-9-9-12-11-14-13-18-10-15-14-24-8-16-8-17-5-18-2-13-4-50-6-61-5-76-2-44-1-1-8 13-10 16-11 18-14 20-11 15-9 13-14 17-9 10-27 27-14 11-16 10-12 6-14 5-17 3-12 1h-19l-15-2-20-8-17-12-12-9-11-9-15-14-24-24-7-8-13-15-13-17-12-15-24-34-11-17-10-16-14-24-12-21-5-4 1 19-1 38-3 49-2 57-2 72-2 40-3 33-5 30-5 19-10 25-15 32-10 18-8 11-10 13-9 10-7 8-19 19-11 8-5 1 1-5 10-17 12-28 6-20 6-29 7-38 6-46 5-52 2-23 4-69 1-36v-138l-3-56-7-49-6-25-8-26-8-20-7-14-8-10-16-17-13-18-11-17-14-24-14-25-13-23-14-25-12-20-12-21-9-19-6-18-3-16-1-10v-22l3-30 12-101 6-50 6-44 7-41 11-54 7-29 5-17 6-12 8-10 8-8 10-6h6l-1 9-8 31-7 38-7 47-7 64-3 21v12l4 11 9 29 15 39 11 21 6 11 12 20 10 13 13 19 10 13 5 3v2l3 1 6-17 7-16 3-6 3-15 2-48 2-59 1-10 6-8 8-7 11-11 14-19 37-37 7-8 28-30 16-16 8-7 11-10 14-11 18-11 21-8 45-13 30-9 20-5h15l17 3 27 7 45 16 26 12 13 8 14 11 16 15 12 11 17 13 13 10 22 18 26 24 15 14 16 15 11 10 11 9 12 11 4 12 1 19v30l4 28 6 13 7-9 12-23 16-34 7-16 9-21 13-35 5-21 3-18v-19l-9-95-4-26-7-27zm-227 156-11 4-9 7-15 15-11 15-12 22-7 15-8 21-6 25-4 8-5 5-11 8-28 13-6 2h-19l-22-4-30-7-33-9-2 2 6 7 10 8 17 14 19 14 8 6 14 8 16 8 8 2h7l15-4 21-8 16-8 21-11h3l1 10-4 31-1 22-4 34-6 25-12 36-11 25-9 16-12 17-7 9-7 10-8 16-2 40v73l-1 25 1 7v22l-4 6-7 11-1 4 1 77 1 15v15l-1 24-1 9-3 5-9-3-8-4-11-9-11-8-10-5-6-2h-7l1 6 10 16 14 15 10 8 19 9 6 4v6l-3 4-12-2-14-4h-8l-17 6-18 6-26 7-9 4-1 2 3 5 12 7h36l11 1 30 1 4 2 1 2v13l-4 4-2 1h-31l-8-1h-15l6 9 9 10 11 14 8 11 8 7 8 3 18 5 4 1-5 21-7 12-3 10 1 4 4 3 12 3h14l19-2 13-4 12-7 13-9 11-9 12-11 13-13 10-13 9-13 12-18 13-21 5-7 5-9 7-11 14-23 6-9 13-24 8-16 10-23 5-15 11-25 8-16 11-28 13-35 11-36 6-24 4-17 2-5 4-2 5 5 11 17 6 6 4-2 9-7 12-13 11-15 9-13 8-13 12-20 12-23 8-16 18-38 8-16 13-27 9-24 4-17 2-15v-48l-3-47-8-97-5-39-8-32-2 2-10 36-14 41-12 29-11 27-17 39-9 21-7 15-19 40-15 35-8 20-3 9h-2l-1-30-4-37-2-31-1-37-4-21-4-15-3-15-3-21-4-15-8-20-9-16-9-12-8-10-7-7-5-6-8-7-10-9-19-14-15-9-14-7zm-598 142-2 16-3 42-9 92v19l6 21 12 21 9 17 13 23 9 15 13 24 10 19 12 22 10 15 11 13 15 9 24 9 10 6 12 9 3 3-1-7-10-37-9-40-6-37-6-48-4-12-6-10-9-11-11-13-11-14-14-19-12-17-12-22-9-20-11-29-6-17-12-31-5-11zm214 224-16 3-13 5-8 6-6 7v5l2 2h9l17-5 14-2h14l21 3 27 9 14 7 13 10 11 8 11 11 10 8 2 7-9-1-52-13-18-3h-25l-12 5-14 10-9 9-3 6 5 10 7 9 6 3h2l1-2 2-22 4-6 9-3h11l8 4 3 5 5 19 6 8 6 5 16 6 13-1 13-5 10 1 12 5 10 4 3 4 4 10 10 10 5-1 7-7 9-5h6l11 6 5 4 4 4 4-1 2-14-4-33v-12l-2-21-5-10-13-12-15-10-26-14-31-12-30-10-28-9-19-4zm-59 171m574 111-5 10-7 11-9 19-8 16-11 24-11 25-1 7 1 12 1 43 3 71 4 53 6 50 7 34 12 25 15 28 3 3 1-111 1-143v-174z" fill="#FEFEFE"/>
<path transform="translate(1024,664)" d="m0 0 8 1 3 5-7 7-29 12-39 15-20 9-16 8-15 10-9 11-1 3v10l5 10 11 11 12 6 7 2 16 1 9-3 8-7 11-12 12-6h2v8l-4 8-7 8-8 13-1 8 5 1 23-6 10-6 7-6 6-1 4 2-2 6-10 13-24 24-8 7-10 9-15 10-9 4-13 1-8-4-4-6-2-13-6-10-8-8-8-7-10-9-8-11-4-9v-11l8-24 7-12 6-10 7-9 11-12 12-9 17-9 24-9 28-9 19-4z" fill="#FEFEFE"/>
</svg>
