<?xml version="1.0" encoding="UTF-8"?>
<svg version="1.1" viewBox="0 0 1600 1600" width="100" height="100" xmlns="http://www.w3.org/2000/svg">
<path transform="translate(752,203)" d="m0 0h41l24 3 62 12 25 6 46 13 32 10 18 8 23 12 19 12 15 9 24 16 17 13 11 9 15 13 14 13 2 1v2l4 2 21 21 9 11 9 12 11 19 12 25 8 21 13 43 15 63 13 71 5 36 4 32 3 15 4 6 6 7 7 14 5 19 2 12 2 29v28l-2 39-5 34-6 24-7 22-8 19-10 20-10 16-20 26-12 12-6 10-1 10-6 28-14 56-9 32-12 40-7 17-6 12-9 10-5 4-4 1-3-2v-8l1-6 1-21-2-5-5 1-7 8h-2l-2 4-20 26-15 15-14 10-27 15-20 12-13 8-2-1 4-12 9-15 5-18v-5l-7 3-9 9-8 7-16 13-20 15-14 10-22 14-24 16-28 16-17 9-23 11-21 8-23 8-2-4h-10l-16-6-22-10-28-11-18-8-16-8-25-13-17-10-19-12-16-12-14-11-9-8-9-6-5-1v10l3 13 4 13 1 5v14h-4l-12-11-11-16-11-17-10-15-13-18-12-21v-2h-8l4 21 4 19 1 11-2 4-5-3-5-7-11-28-11-24-9-15-11-14-14-17-11-15-5-8-12-26-5-6v-2l-6-1-3 5-5 20-5 9-5 1-5-5-2-5-6-38-5-23-9-31-7-20-21-52-8-27-7-30-4-25-6-41-6-32-2-19v-13l2-16 5-18 7-16 7-21 3-14 8-64 6-55 4-42 4-23 6-27 7-25 11-32 7-16 13-27 12-19 13-19 10-13 11-13 4-5h2l2-4 5-5 16-15h2v-2l28-22 19-13 11-8 26-15 23-11 13-6 24-9 22-6 17-2h11l31-13 22-7 29-7zm204 86-10 4-13 9-18 18-9 11-13 14-11 14-4 8-1 9 6 43 9 66 6 33 5 20-1 9-5 8-10 10-2 4-2 12-1 17-2 90-4 16-6 10-9 11-9 10-8 7-7 6-8 7-11 16-8 16-8 17-12 19-8 16-3 19-1 13v27l2 36 3 32 5 47 1 47-2 6-18-4-14-3h-20l-22 7-9-2-4-1v-13l-3-6-7-3-7 2-5 6-3 7-3 21 3 7 5 4 20 9 17 9 23 11 11 7 8 7 3 7 2 8-1 7-5 6-14 5-26 6-27 8-7 1h-10l-15-2-12 2-6 5 1 7 6 5 5 2h21l11 4 14 8 15 7 21 9 16 7 10 5 4 6 1 4-5 3-3 1-12 1-48 1-3 1 2 6 8 9 14 9 14 7 27 10 16 8 4 6 3 17 2 19 2 34 8-1 13-4 19-7 29-13 25-13 15-9 22-13 19-12 24-15 17-12 17-13 20-18 11-11 7-8 1-3 3-1 10-13 7-8 8-10 11-18 15-31 15-37 11-30 7-19 6-21 3-17 3-7 6-1 15 3h12l16-6 14-9 7-8 9-16 12-23 9-20 9-25 5-20 2-18v-18l-4-56-3-7h-2l-1-3h-7l-6-4-2-2-3-32-12-96-1-49-3-21-8-32-7-21-8-21-12-29-11-24-13-23-7-11-11-14-11-12-15-15-8-7-12-11-11-9-14-12-17-13-19-13-13-8-21-12-19-8-4-1zm-400 438-19 2-15 4-14 7-7 6-3 5 2 6 3 2h12l20-5 7-1h18l16 5 37 15 16 8 17 9 7 6 3 6-25-6-21-7-17-4-8-1h-12l-13 4-11 6-16 12-16 13-8 8-7 12v5l6 5 6 1 8-4 18-18 11-8 5-1 4 4 8 16 11 14 8 7 10 6h13l11-7 5-5v-2l4-2 5-3 11 2 3 1 26 1 10-4 10-2 28 1 6-4 1-7 1-9-4-15-5-12-9-15-10-13-7-8-12-9-11-5-19-5-31-6-29-7-18-3zm-203 53-13 5-10 8-9 11-3 6-1 5v22l3 26 6 26 10 32 9 20 8 17 8 12 12 16 15 16 13 11 4 1v-9l-9-51-15-90-9-62-3-17-2-5zm820 312-8 9-18 30-9 13-10 16-11 15-7 12-9 12-10 15-13 20-8 16-1 7h5l10-8 11-11 10-14 13-16 8-7 15-5 6-5 8-16 5-15 14-56 1-12z" fill="#FEFEFE"/>
<path transform="translate(1022,739)" d="m0 0h14l21 5 27 10 10 6 4 6v6l-4 3h-22l-44-3h-19l-20 2-31 9-25 9-19 10-5 6 4 16 7 14 9 10 10 5 13 2 14-2 9-2 19-8 12-1 4 3v10l-4 6-8 7-16 8-29 6-15 3 5 5 11 4 11 1h26l16-2 12-4 16-9 12-6 4-1h16l16 3 6 3 3 5-1 7-6 15-9 15-10 11-7 8-8 8-14 11-38 28-22 16-4 1-5-2-6-10-9-24-1-9v-13l-3-8-8-6-17-9-14-12-13-14-16-24-7-14-2-7v-10l3-9 5-13 8-16 4-6 11-11 11-7 29-14 43-16 25-8z" fill="#FEFEFE"/>
</svg>
