<?xml version="1.0" encoding="UTF-8"?>
<svg version="1.1" viewBox="0 0 1600 1600" width="100" height="100" xmlns="http://www.w3.org/2000/svg">
<path transform="translate(1200,149)" d="m0 0 9 1 7 4 6 7 4 10 2 11 2 29v7l-4 6-4-2-8-7-8-10-6-5-8-3-5 1-11 7-13 12-17 17-9 11-10 15-8 15-8 24-3 17v11l3 15 6 18 16 34 8 18 10 23 13 34 6 21 5 23 3 22 1 14v60l-2 22-4 27-6 29-9 29-6 20 4 6 21 21 9 11 9 12 8 12 10 14 4 4 7-1 12-7 15-10 22-14 18-12 8-1 5 3 1 2v7l-6 32-6 28-6 27-10 40-6 35-3 19v6l10 14 8 9 3 6-1 8-5 16-1 7v13l2 7 5 2 16 8 17 5 6 3 1 4-4 6-18 10-12 7-24 8-4 2v5l12 13 4 8 2 12-5 13-8 16-7 12-8 11-5 8-1 4v8l7 13 12 14 14 9 11 4 5 1h8l12-1 6 3 1 5-10 9-28 14-19 5h-27l-17-3v19l-4 18-5 13-8 16-10 13-9 10-11 9-8 7-16 10-25 13-13 8-17 8-5 1-1-4 12-17 4-5v-3l-4-2 5-4-5-8v-4l-20 7-14 8-15 11-8 8-8 7-10 10-8 7-7 6-6 2h-4l2-6 9-12 6-9 5-13 1-3v-14l-6-20-13-30-7-18-3-1-8 7-9 11-19 19-1 2h-2v2l-8 7-11 11-8 7-14 12-10 9-10 8-13 11-16 12-17 12-21 12-9 3-12-1-13-5-20-11-33-22-17-12-18-13-19-14-14-11-10-9-11-9-24-24-13-18-13-22-10-19-8-16-13-27-7-18-4-6-4-3-3 11-3 13v13l5 16 9 20 13 25 9 16 4 8 1 7-3 3h-2l-2 5-6 11-4 10-2 8v10l5 10 6 7 13 10 19 9 7 8 1 3-8 12-6 5-9 2h-5l-8-9-6-8-10-5-9-3-14-2-18-7-16-8-12-9-9-9-10-14-7-12-6-19v-2l-8 1-3 4-2 7 1 17 9 27v5h-7l-12-6-11-9-14-12-12-13-9-11-8-11-4-10-1-14-8-25-1-5-1-20-1-3-6 2-12 11-10 7-6 3h-20l-27-7-20-7-4-3 1-4 9-2 21-3 16-7 14-10 14-12 11-13 4-9 2-7v-10l-5-17-7-16-10-19-8-18-4-13-1-11 3-21 5-14 14-28 1-3v-8l-10 5-14 11-9 6-9 4-12 3-7 1h-23l-7-3 4-4 13-6 15-6 11-6 7-6 6-12v-10l-5-13-6-8-8-9-1-6 3-6 10-9 16-12 5-5 1-3-1-22-6-59-4-48-3-19-2-11v-8l7 1 16 9 19 12 14 8 26 13 7 1 8-16 6-10 6-8 15-23 8-16 5-9 6-6 4 1 6 13 5 17 6 11 9 16 8 13 4 3-2-16-4-27-4-45-12-61-5-32-2-20-2-57v-11l2-27 5-30 6-25 11-33 6-14 10-19 11-21 5-15 3-17v-17l-3-21-6-20-8-16-9-11-9-10-12-10-12-5-10-1-8 3-6 4-7 8-6 9-8 11-4 1-1-1v-16l6-29 8-16 8-9 7-4h10l14 2 33 11 25 13 19 14 24 24 9 11 11 16 10 18 10 21 10 26 4 14 1 6v8l-8 11-8 9-9 14-6 14-5 17-2 14v24l4 23 8 26 9 20 11 22 12 20 7 8 6 3 6-1 16-12 16-10 10-7 26-14 27-13 29-12 19-9 8-1 17 6 30 14 28 15 19 12 11 7 10 7 14 9 14 10 6 3 7-1 8-7 11-14 7-14 7-21 5-21 3-25v-32l-4-25-6-21-13-32-6-9-8-10-2-3 1-5 12-26 8-17 8-14 13-18 12-14 7-8 9-10 25-25 11-9 13-11 18-13 19-12 25-12 16-6 26-6zm-46 43-15 6-20 10-13 8-11 8-13 11-10 9-10 10-9 11-10 13-15 24-8 13-5 11-1 4v9l6 18 5 25 6 36 2 15 3 40v41l-3 33-3 16-4 12-10 14-15 14-14 11-18 13-16 8-11 6-2 2 1 5 7 14 3 9 1 6h-9l-17-5-15-4-10 2-8 4-15 14-10 11-13 18-9 14-18 35-10 22-2 2-5-4-8-10-13-19-14-18-12-14-4-5-14-11-15-9-15-7-14-4-7 1-6 4-10 9-8 7-5 6 3 3 27 6 9 6 14 12 15 15h2l2 4 13 13 9 11 10 13 15 20 7 11 8 13 12 23 9 19 1 3v8l-6 12-13 13-8 7-7 9-4 5-7 1-13-7-13-10-30-20-25-15-14-6-19-6-11-2h-12l-5 3 1 5 9 4 21 8 7 5 6 10-3-1-27-1-8-1h-28l-12 5-9 6-8 8-6 13-1 9 5 4 8-6 18-6 20-4h22l16 1 6 1-1 4-9 4-15 4-44 10-16 3-5 8 1 6 5 5 6 2 6-1 8-4 9-3 11-1 7 2 3 4 7 14 5 6 10 6 15-3 8-5 9-9 6-4h7l7 4 7 10 5 10 1 3v8l-3 8-7 9-11 8-14 8-3 3 1 4 5 1 14-2 24-11 15-10 9-7 10-9 9-9 8-7 14-13 3-2h4l1 5 1 33 3 42 2 70 1 23h-7l-27-6-17-3h-8l-2 4 3 5 9 9 17 12 11 8 10 3 11 3 4 4 2 9v9l1 7-2 7-2 3-9-2-18-5h-23l-12 5-7 7-8 7-10 8-23 12-4 4 5 6 6 1h11l27-3h26l34 4 4 5 2 9v8l-1 2-19 1h-29l-25 2-1 3 6 10 15 15 8 9 7 8 9 6 3 1 21 2 5 5 1 25 3 38 1 13 3 6 5-2 13-7 13-10 16-13 14-11 11-10 14-11 13-11 9-7 12-11 8-7 16-16 7-8 10-13 11-17 9-11 6-5 7-10 8-17 7-20 5-11 8-21 6-17 3-11 4-23 8-27 21-64 7-16 6-7 3-1 2 3v13l-7 34-9 34-4 14-1 13 1 1h12l12-4 13-8 10-8 11-11 9-11 12-13 11-14 13-17 11-17 10-17 9-17 14-32 14-39 14-49 15-64 3-16v-5l-10 5-21 14-16 12-11 9-16 13-13 10-16 12-17 12-10 8-10 9-6 8-6 12-3-9-1-4v-11l3-12 6-15 2-6v-8l-5-19-10-25-10-21-13-23-1-4 6-11 6-8 6-10 10-14 6-14 5-15 6-26 6-30 3-25v-45l-2-43-3-28-5-23-6-21-8-22-13-30-13-28-10-24-6-18-3-17v-20l4-13 8-16 12-17 9-12 12-14 18-20 16-16-1-3zm-23 572-5 5v11l8 16 12 22 9 20 7 14 3 2h6l15-10 9-8-1-4-13-19-8-12-13-17-9-10-10-9-3-1zm-777 41v19l5 45 6 45 7 37 5 21 6 16 11 19 11 18 11 16 13 16 9 11 12 14 14 15 12 13 12 12 11 9 17 12 19 12 7 3h6l2-6v-23l-8-23-8-17-9-10-12-9-5-5-8-20-7-19-8-19v-8l4-6 14-11 8-9 2-7v-14l-2-30-4-10-9-10-5-5-10-9-11-8-22-15-47-30-19-14-18-11-9-5zm889 216-7 8-4 8-20 30-11 18-8 11-24 34-11 17-11 20-6 11-9 13-10 14-9 11-15 16-18 18-9 7-2 1 2-6 6-10 11-13 8-10 10-13 11-14 8-13 9-18v-2l-4 2-11 6-14 12-12 10-11 7-8 5-5 6-9 19-8 24-8 40v14l2 13 5 12 6 10 9 11 7 7 14 10 5 4h2l-4-22-4-18v-14l6 1 8 16 10 24 6 12 3 11 7 7 2 1h7l10-5 15-13 12-12 8-11 5-8 5-10 4-16 1-9v-14l-3-15-4-16v-5l9 3 15 6 9 3 9 2h17l7-3-4-11-14-22-7-16-3-13-1-15 3-9 4-9 9-14 3-8v-8l-8-15-7-9-10-15-1-1v-5l10-10 11-16 6-10 3-13v-12l-1-12-1-2z" fill="#FEFEFE"/>
<path transform="translate(998,930)" d="m0 0 16 1 13 3 7 4 2 2v3l-10 5-16 3h-43l-12 4-12 8-12 11-9 10-2 4v6l6 8 10 5 14 4h11l10-5 15-15 4-2 7 1 3 1v8l-4 11-14 26-4 8-1 3h24l14-2 15-4h11l3 4v10l-10 18-8 10-12 16-12 14-7 8-8 7-2-3-3-16 2-3v-11l-3-9-7-10-7-6-12-7-25-9-12-5-1-5 6-10 3-4-1-6-7-8-13-5-11-2-6-3-2-3 1-6 10-13 9-12 9-10 8-6 17-10 19-7 32-8z" fill="#FEFEFE"/>
</svg>
