<?xml version="1.0" encoding="UTF-8"?>
<svg version="1.1" viewBox="0 0 1600 1600" width="100" height="100" xmlns="http://www.w3.org/2000/svg">
<path transform="translate(929,247)" d="m0 0 7 1 10 7 11 8 32 26 12 10 9 7 15 14 6 10 3 7 7 56 2 26v48l-1 7 17-7 12-8 8-16 6-23 6-37 2-22 2-7 3-1 13 7 11 10 14 11 10 9 2 1v2l4 2 8 8 8 7 10 10 9 11 9 12 13 23 4 11 2 14-1 11-6 32-3 19 17-8 14-10 13-10 6-6h2l1-3 5-5 8-11 5-11 4-13 9-37 4-24 2-19v-7l2-6 4-1 5 4 7 14 8 20 13 29 10 30 5 23 3 19 3 33v30l-4 17-6 11-12 16-11 12-7 8-17 17-11 9-9 8-17 12-22 14-16 11-7 7-2 5-5 25-8 34-3 17v23l3 10 4 4 9-1 8-4 11-9 15-15 8-13 5-14v-43l1-2 6 1 11 11 11 18 16 31 12 29 5 15 1 4v18l-3 10-7 15-9 14-8 11-10 13-11 13-7 8-2 3h-2l-2 4-21 21-12 17-13 23-11 19-7 8-9-3-20-13-15-10-12-6-7-4-5 1-6 10-16 36-3 11v14l13 34 7 16 7 11 9 11 8 10 8 13 5 11 6 20v13l-4 2-18-12-13-8-10-4-29-11-20-5-13-1-8-1-14 4-16 9-17 13-14 12-12 11h-2v2l-8 7-12 11-8 7-10 8-11 9-17 12-20 14-19 14-28 21-11 9-14 12-13 10-11 7-6 1-19-11-20-14-14-10-16-13-10-8-15-13-10-9-15-14-13-9-13-10-10-8-13-11-14-9-23-11-26-8-19-4-8-1-14-3-5-5-4-6-4-12-5-6-6-2-15 1-10 4-11 7-13 4-4 1h-8l-2-3 1-5 9-14 7-14 11-13 10-10 8-11 3-16 2-19 1-3v-16l-4-16-1-12 2-5 6 1 10 9 8 4 9-2 5-10 6-18 3-5 4-8 7-7 5 1 2 8 1 15 2 9 5-3 6-7 4-6 5 2 6 5 8 13 7 21 11 19 8 8v2l7 2h7l3-2 1-4 1-20 2-12 3-8 4 1 9 17 9 13 6 10 8 8 2 1h6l4-3 2-10v-12l4 1 7 9 7 7 7 10 14 15 2 1v2l4 2 10 9 10 8 6 7 8 15 11 13 12 6 7-1 13-11 9-7 16-13 13-11 10-8 13-10 10-9 10-8 10-9 8-7 13-13 9-11 9-16 6-17 4-4 8 3 4 6 6 16 1 2 5-2 14-11 17-13 10-7 20-15 18-14 7-7 8-7 5-6h2l2-4 5-7 6-4 10-3 3-1 2-8v-9l-2-9v-14l2-5 5 2 11 14 14 25 6 10 8 19 11 8 19 7 16 9 1 1h5l4-3h2l3-9 16-32 8-7 15-8 10-8h2v-2l5-5 9-10 12-18 9-17 5-15 1-6v-17l-5-23-5-8-4 3h-2l-2 4-13 15-9 10-17 17-11 9-12 8-10 4-7-1-6-4-7-8-11-23-6-18v-12l2-15 6-25 4-17v-6l-7 2-7 7-8 7-8 11-6 8-7 6h-2l-2-5 1-6 4-18 3-15 3-9 4-5 10-7 24-13 16-10 13-9 14-11 19-14 13-10 16-12 16-13 11-9 13-12 13-17 6-16 2-10v-27l-2-21-6-32-5-18-7-19-4-10-5 35-4 15-9 21-9 12-12 14-8 8h-2v2l-8 7-14 12-17 14-19 14-14 12-11 9-14 12-5 3h-3l1-4 4-9 8-14 6-14 5-20 5-33 1-14 1-38-2-10-9-16-14-18-9-11-11-11v-2l-4-2-13-13-6-4-2 9-1 32-3 21-5 15-9 14-8 8-14 10-22 12-17 8-22 12-19 12-28 15h-3l2-5 9-15 11-18 10-18 6-12v-19l-4-28-3-35-2-43-1-33-2-12-4-8-10-13-11-12-18-14-2-1 4 18 3 24v22l-4 16-6 10-10 11-11 9-20 13-22 12-14 10-8 3-6-2-9-7-7-8-9-11-12-15-10-13-5-4-2-1-1 12v36l4 17 8 16 10 19 12 21 4 10v14l-7 33-10 35-14 42-12 32-21 52-15 34-5 10-3 4-6-2-12-8-4-3-5-1-4 4-1 2-2 17-1 5v8l1 1 1 11 3 4 4 12v13l-2 7-4 5-5-2-4-5-9-15-8-16-9-13-12-13-9-9-6-7-8-7-10-9-15-11-21-12-19-8-36-12-16-3-29-2-9-2-4-2v-7l7-21 2-11-2-3-7 1-7 6-7 8-14 12-9 8-1 2v7l6 11 10 10 7 5 12 3 17 1 11-1h35l16 4 5 5v4l-7 3-21 2-15 6-22 15-11 9-6 8-2 9 2 4h8l6-3 6-5 4-5 13-9 10-4 11-2h8l4 4 2 4 1 12 7 14 6 5 7 3 13 2 30 2 9 2 8 8v6l-3 4h-2v2l-15 9-7 7-6 4h-7l-16-4-9-3-7 1-8 7-11 9-13 10-7 5-8 10-4 7 8-1 9-2 9-4 15-4 16-8 1-1h7l8 3 7 7 6 2h8l8-5 10-11 10-8 7-8 7-5 7 1 11 7 9 8 8 4 10 6 13 5h8l18-3 9 1 4 2 5 8 2 15 3 44v18l-1 3-6-2-11-8-11-14-3-5-6-21-3-4-12-3-16-2-10 1-4 2-3 6 3 9 7 3 11 3 8 4 5 5 2 7v9l5 16 8 9 5 8 11 8 17 1 11 3 3 7 1 3 6 91 1 11v10l-2 3-12-12-11-16-7-12-1-6 2-6v-9l-2-6-6-2-2 17-4-2-7-7-7-8-11-16-4-13-2-11-3-4-6 1-5 5-5 7-4 1-9-5-2-2-2-14v-5l-4-4-5 1-4 5-3 6-5-1-5-6-5-5-3-4-5-10-8-10-4-1-4 3h-2l-2 9 2 36-3 8-3 3-3-1-16-22-12-16-7-13-1-1-1-14-5-11-8 1-5 9-5 4-2 3-6 1-10-3-5-4-6-8-4-7-10-4-3 1v7l6 16 7 11 5 6-1 6-8 16-5 8-9 9-3-1-2-5-6-4-13-14-6-4-9 1-5 4-4 6-13 8-10 6-6 3-6-1-11-8-23-23-9-13-8-15-7-16-10-14-10-8-12-7-11-7-6-4-4-6-2-10 4-34 7-31 8-28 7-17 7-11 7-7h2l2 8 1 43 3 12 8 11 10 11 5 5 9 6 17-3 21-8 1-4-6-20-7-21-12-37-8-19-8-14-6-7-22-11-14-11-12-11-8-7-12-11-8-7-13-13-8-12-6-17-6-20-5-30-2-24 1-27 3-31 5-30 6-25 11-29 9-16 8-11 5-6 6-4h5l1 5-2 13-7 34-3 20-1 11v28l4 20 6 14 10 13 10 11 11 9 9 9 8 7 10 8 6 4-2-19-1-22 2-29 4-25 5-15 11-17 12-14 12-12 5-6 8-7 9-9 8-7 10-9 6-3 4 1 1 6-2 15v12l3 13 7 13 12 17 4 5 13 10 22 13 15 8 11 5-6-36-4-33-2-21-1-17v-30l2-8 8-18 8-12 10-13 7-8h2l2-4 5-4 5-5 11-10 20-15 12-10 11-7 3 1v9l-6 32v28l-2 15-3 15v18l6 12 12 13 12 10 15 9 12 2 13 2 5 3 13 14 5 10 12 11 4 2-3-22-6-26 1-10 4-9 10-14 14-18 10-13 8-11 9-10 6-1 6 4 9 11 9 10 7 8 15 16 19 19 9 5 5-1 21-11 18-12 10-8 5-7 2-7v-78l-2-16zm17 35m133 710-11 4-11 7-19 14-10 9-8 6-17 16-8 8-8 14-7 13-6-2-10-6-4-3h-6l-11 6-18 14-30 23-16 12-14 11-13 11-11 9-15 14-7 5v2l-4 2-14 14-3 6-3 71v65l2 10 6-1 13-8 19-14 25-20 14-11 15-13 10-8 17-17 8-10 9-12 10-15 5-8 4-12 1-7 1-24 5 3 9 19 3 8 1 1h5l11-8 10-10 17-13 10-7 10-8 12-7 5 1 12 9 13 8 15 8 20 8 16 4 4-1-6-9-6-8-12-13-8-7-10-7-11-7-3-1 1-9 4-5 8-5 1-11-4-13-7-13-3-4 2-15 7-25 3-12v-9l-4-16zm11 121 2 5 1-3z" fill="#FEFEFE"/>
<path transform="translate(1051,628)" d="m0 0 4 2 9 9 13 17 12 13 8 7 6 10-1 7-5 5-14 8-5 3-4-2-9 1-10 2-11 7-3 3 2 9 1 9v12l-5 5-3 1-12-4-14-8-8 1-13 5-21 13-13 8-3 4 2 5 10 10 13 8 24 6 3 2v5l-7 6-18 9h-5l-5 1-15-5-17-13-10-7-5-2h-9l-6 3-11 13-10 16-9 17-4 4h-6l-3-4-2-6-1-10v-12l2-15 7-22 8-9 10-4 16-3 15-5 14-8 22-13 38-24 18-10 14-9 23-14 9-7h2l2-4 3-7-4-13-6-16z" fill="#FEFEFE"/>
</svg>
