<?xml version="1.0" encoding="UTF-8"?>
<svg version="1.1" viewBox="0 0 1600 1600" width="100" height="100" xmlns="http://www.w3.org/2000/svg">
<path transform="translate(801,246)" d="m0 0h9l19 7 20 9 13 3 28 6 43 12 15 5 32 13 25 12 16 7 23 12 12 8 14 10 19 19 11 16 7 11 11 14 10 10 7 8 8 9 9 14 15 24 9 12 11 14 9 16 8 19 8 27 3 12 6 35 3 6 8 4 8-8 13-7h11l12 4 19 11 13 11 9 9 9 14 5 13 4 19 1 13v11l-2 26-4 27-7 32-9 26-11 26-19 38-2 6v8l4 15 19 57 4 20 1 10v17l-3 23v18l4 9 9 10 7 8 8 10 9 17 9 25 6 21 7 32 5 15-1 5h-6l-11-9-7-7-4-5-7-5-19-6h-4l7 19 11 25 12 37 13 44 6 25 2 18v11l-4 5-13 4-12 1-9-3-4-8-3-21-5-28-12-57-10-43-11-43-3-10v-3l4-1h11l21 6 16 5 12 2-6-16-8-14-12-19-10-13-11-13-12-13-9-10-3-9 3-7 4-16v-45l-3-18-8-26-8-17-5-6-6-3-7-1-8 3-10 9v24l3 25v8l-5-1-5-9-5-12-9-27-10-21-4-12-1-10 3-5v-17l1-3 5 1 4 7 3 9 9 8 8 4 6-2 17-9 19-11 10-9 8-13 7-20 9-27 9-38 4-24 1-44v-20l-3-12-7-11-12-12-14-9-8-4-4-1h-9l-10 5-11 12-9 11-10 13-11 18-8 10-4 2-3-5-1-7-1-32-7-25-2-6-1-20 3-6-1-8-7-20-5-15-10-36-14-36-7-13-10-14-11-14-15-20-8-12-10-14-9-10-13-13-14-11-11-8-22-11-27-10-16-7-18-4-17-3h-6l-2 5-1 7 2 5v7l-6 9-8 6-28 11-16 7-28 10-25 7-10 1-16-4-16-8-22-12-25-11-10-3h-6l-3 4 2 5 8 8 14 10 18 12 16 10 17 11 31 19 15 7 5 2h9l8-4 20-12 20-14h4l-1 5-9 11-20 28-9 14-1 6 5 14 2 13 1 31 2 12-1 18-5 19-8 25-4 17-8 16-6 11-7 9-9 9h-2l-2 5-7 7-5 10 1 4 1 1-1 28-1 11 5 14 5 6 5 5 14 13 4 8 2 10v10l-6 22-2 9 1 14 3 9-1 9-6 5-5 3 1 9 9 18 3 12 2 15 4 17 4 12v11l-5 13-7 8-8 7-8 3h-9l-15-6-12-5-3-2-9-3-12-6-11-6-11-3h-12l-20 8h-5l-12-8-5-8-4-9 1-8 4-8 7-9 8-7 10-8 10-7 4-5 1-7-2-4h-12l-12 5-17 9-12 6-9 7-14 14-7 13-3 8-1 14-1 6v15l4 5 25 10 16 8 23 10 10 5 20 14 10 4 13 2h14l8-1h14l13 2 5 4v13l-1 7v9l2 7v25l-4 10-7 8-13 7-10 9-8 7-8 1-9-6-6-7-10-21-7-1-5 3-9 10-12 11-9 8-7 9-8 6-6 3-4-1-2-5-1-9 4-9 2-6-1-8-1-5-11 1-13 9-10 4h-7l-6-7-1-8v-10l-3-6-4-1-9 4-7 9-7 8-8 2-5-3-10-8h-6l-4 6v7l1 2-1 9-7 14-7 10-9 12-9 11-7 14-1 3-1 12-2 7-3 24v8l-1 8 1 3v8l-1 6v8l-6 15-8 10-7 8-12 14-11 9-9 4h-26l-7-1-14 8-5 1h-32l-37-4-42-1-12-2-2-3 5-17 7-28 7-19 10-18 10-13 10-10 14-11 13-10 7-6 11-7 10-9 13-9 4 2 2 5-1 8-6 16-11 36v4l4 2h6l5-6 12-36 5-18 4-20 7-25 9-35 5-9 4-2 2-4 19-19 8-7 16-13 13-10 12-9 12-8 14-10 8-6 8-11 1-6-4-5-7 1-12 5-20 10-19 10-22 11-4-2-9-11-7-9-15-15-13-12-7-7-7-8-12-12-5-6-12-9h-1v7l-2 7 1 11 5 15 8 15 11 16 8 15v8l-12 26-10 27-10 23-3 3-9-7-7-8-7-10-9-14-14-26-5-12-1-16 2-21 4-11 7-13 11-14 9-10 7-8 12-8-2-10-8-16-6-10-9-14-8-15-6-5-5 2-10 9-8 7-14 10-9 7-1-2 4-12 9-15 10-15 14-28-1-4-6-16-13-28-10-23-6-17-1-5v-32l4-22 7-24 7-20 11-29 6-10 3-3 4-1 27 1 4-9 4-32 3-20 9-36 9-25 6-11 9-11 7-4 16-4 9-6 11-18 10-23 9-16 8-13 11-13 11-8 14-9 16-11 17-11 16-9 50-24 33-14 37-13 27-7 29-6 34-6 26-4zm-449 394-8 3-6 7-8 16-5 16-8 43-1 11v12l3 15 6 15 8 15 6 12 8 14 7 14 9 16 17 39 5 12 8 15 5 8 4 1 5-3 4-9 2-8v-10l2-19 3-13 2-14 3-14-1-7-6-12-10-14-10-12-8-10-7-10-2-6v-23l2-21 2-14 4-8 2-2 6 1 13 6 5-1 4-3 1-9-3-10-6-9-8-7-13-9-18-10-13-4zm335 40-28 5v3l10 8 14 11 14 14 3 7 1 7-16-3-11-4-4-2-16-4-62-16-15-3-17-1-11 1-13 5-10 5-10 6-9 6-3 5 5 8-1 5-9 9-11 14-10 15-1 2v7l4 8 4 3h7l6-3 7-8 8-11 8-7 17-9h6l9 6 8 16 4 6 6 5 9 5 16 6 9 2 10 1 16-7 10-7 5-5 7-10 6-8 7-1 13 7 5 4 5 9v7l-7 17-9 11-11 18-4 10 1 4h7l10-4 42-28 9-7 7-7 11-9 12-11 3-4 1-7v-11l-1-16 2-13v-12l-3-10-7-11-7-7-15-9-19-9-12-3z" fill="#FEFEFE"/>
<path transform="translate(1037,686)" d="m0 0 11 1 12 6 30 20 16 1 18-7h7l3 2 1 5-4 8-9 11-11 9-6 5-8-1-12-5-10-7-16-9-10-4-13-2-14 4-15 6-29 14-35 20-12 7-2 3 1 4 14 12 6 3 8 2 6 2h8l9 2 5 5-1 5-6 9-4 9v6l5 2h15l21-6 32-13 18-8 8-1 5 5 3 5-1 37-4 18-7 21-5 19-3 6-7-6-7-7-6-9-10-11-7-8-11-8-6-2h-7l-11 3-10 6-9 4h-6l-6-5-4-8-5-14-9-19-10-18-10-14-11-12-5-5-8-10-2-6 4-13 10-25 7-24 6-12 3-4h3l1 3v37l21-10 16-8 24-10 28-11 13-4z" fill="#FEFEFE"/>
<path transform="translate(796,1176)" d="m0 0 3 2 4 17 3 20 4 12 7 17v11l-3 3-16 8-11 8-17 13-16 15-11 12-12 20-4 6-4-1-16-16-7-8-23-23-9-11-7-7-5-10-1-4v-11l6-18 9-11 4-5 10-7 7-2 17-1 14-5 5-1 7 2 8 5 6-1 14-6 16-11 10-7z" fill="#FEFEFE"/>
<path transform="translate(599,1214)" d="m0 0h5l4 5 1 4v8l-1 13 5 18 7 14 9 12 7 7-1 11-5 29 4 9 1 7v13l-5 5-8 1h-9l-4-2-18 2h-22l-9-2-13-13-8-2-3-1-7 4-9 3-10-1-1-3 9-12h2l2-4 11-14 10-17 9-23 4-13 2-19 4-11 4-6 12-7 6-3 7-7z" fill="#FEFEFE"/>
<path transform="translate(1093,1219)" d="m0 0 6 1 13 10 12 12 8 7 8 8 8 7 15 15 11 17 8 16 17 38 6 16v5l-3 1h-32l-9-2-5-3-5-11-6-16-4-8-5 1-13 11-9 8-11 6h-3l1-6 14-28 5-13 3-15-1-11-5-15-8-17-12-22-4-8z" fill="#FEFEFE"/>
<path transform="translate(311,1101)" d="m0 0 7 6 8 13 7 12 8 12 8 8 8 14-2 10-7 13-3 4h-2l-2 4-7 8-8 10-11 8-4 4h-2l-1-9-5-19-5-27-4-17-1-17 5-9 6-18 6-8z" fill="#FEFEFE"/>
<path transform="translate(280,1181)" d="m0 0 4 1 4 10 4 25 3 11 1 5-4 9-7 8-7 11-7 10-9 19-13 39-4 6-4-1-4-7-4-14-3-22v-19l3-12 4-10 9-12 11-11 6-8 7-14 5-18 3-5z" fill="#FEFEFE"/>
<path transform="translate(327,905)" d="m0 0 4 1 7 10 8 21 3 12-1 5-8 10-10 8-11 9-24 24-9 6-4-1-2-3v-27l-2-6v-10l4-11 12-17 12-12 8-7 11-11z" fill="#FEFEFE"/>
<path transform="translate(805,1293)" d="m0 0 3 1 5 10 3 16 3 37 1 14-3 3-4 1-27-1-41-3-2-1 1-7 5-10 7-10 10-14 9-10 12-12 8-7z" fill="#FEFEFE"/>
<path transform="translate(1024,1232)" d="m0 0 5 1 2 2v9l-3 19-4 14-5 12-8 16-18 27-7 10-4 9-3 10-7 9-1 1-10-1-5-3-2-3-3-17-8-22-13-27-7-12-5-12v-4l6 1 13 7 5 5 8 9 10 14 7 8 10 8 7-4 9-10 11-18 7-15 5-14 5-18 2-10z" fill="#FEFEFE"/>
<path transform="translate(657,1308)" d="m0 0 6 1 12 8 10 8 7 6 5 5 13 11 9 8 6 11v5l-6 2-11 1h-39l-13-1-2-2-1-4v-33l1-16z" fill="#FEFEFE"/>
<path transform="translate(291,1021)" d="m0 0 5 1 4 4v12l-2 17 1 11 3 17 1 15-18 22-4 6-3 1-2-2v-7l4-12 3-6 1-8-10 3-13 4-5 6-3 2-5-1 1-7 11-18 3-4 8-16 11-23z" fill="#FEFEFE"/>
<path transform="translate(1253,1090)" d="m0 0 5 2 6 10 6 15 5 12-1 4-4 3-5-1-7-11-3-12-3-15v-6z" fill="#FEFEFE"/>
<path transform="translate(1247,1020)" d="m0 0 4 1-1 13-5 18-2 3-8 3-4-1-2-5v-6l8-14 9-11z" fill="#FEFEFE"/>
<path transform="translate(401,1146)" d="m0 0 2 1-1 15-3 12-4 5-4 2-5-1-5-6 1-4 8-14 7-6z" fill="#FEFEFE"/>
<path transform="translate(287,1014)" d="m0 0h2l-1 6h-2z" fill="#FEFEFE"/>
<path transform="translate(287,916)" d="m0 0" fill="#FEFEFE"/>
</svg>
